<?xml version="1.0" encoding="utf-8"?>
<!-- Generator: Adobe Illustrator 19.0.0, SVG Export Plug-In . SVG Version: 6.00 Build 0)  -->
<svg version="1.1" id="layer" xmlns="http://www.w3.org/2000/svg" xmlns:xlink="http://www.w3.org/1999/xlink" x="0px" y="0px"
	 viewBox="-153 -46 652 652" style="enable-background:new -153 -46 652 652;" xml:space="preserve">
<style type="text/css">
	.st0{fill:#FF6122;}
</style>
<path class="st0" d="M325.9,341.1c26.5,0,30.2-32.5,48.3-61.5c-0.7,10.4-0.1,19.5,1.9,25.9c7.9,24.9,35,26.8,47.3,1.5
	c17.4-35.6,22.4-44,39.9-69.7c11.6-16.9-1.8-27.9-17.4-20c-8,4-20.9,14.2-37.1,35.6c2.8-16.3,2.1-43.9-21.5-42.3
	c-12.4,0.8-28.5,14.8-50.5,50.8c1.8-20.2,2.5-34.5-6.3-42c-6-5.1-20.2-7.1-28.7,3.9c-8.6,11.1-10.6,32.8-9.7,55.6
	C294,326.7,310.9,341.1,325.9,341.1 M-110.2,309.7c2.5,0,4.8-1.7,5.5-4.2l9.9-35.2l10.1,35.2c0.7,2.4,3,4.2,5.5,4.2h2.6
	c2.5,0,4.8-1.7,5.5-4.2l13.8-47.1c0.6-2.1-0.9-4.1-3.1-4.1h-2.7c-2.5,0-4.8,1.7-5.4,4.2l-9.5,36.2l-9.4-36.2
	c-0.6-2.4-2.9-4.2-5.4-4.2h-3.7c-2.5,0-4.8,1.7-5.4,4.2l-9.4,36.2l-9.5-36.2c-0.6-2.4-2.9-4.2-5.4-4.2h-2.7c-2.2,0-3.7,2.1-3.1,4.2
	l13.7,47.1c0.7,2.4,3,4.2,5.5,4.2H-110.2z M135.9,282.1c-0.3-16.7-9.2-29-23.6-29c-6.6,0-11.4,2.5-14.9,5.8v-0.3
	c0-2.4-1.9-4.3-4.3-4.3h-1.6c-2.4,0-4.3,2-4.3,4.3v65.6c0,2.4,2,4.3,4.3,4.3h1.9c2.4,0,4.3-2,4.3-4.3v-18.8
	c3.6,3.1,8.2,5.5,14.6,5.5C126.9,310.9,135.6,298.5,135.9,282.1 M195.4,309.7c2,0,3.7-1.7,3.7-3.7v-3.6c0-1.4-1.2-2.5-2.5-2.5h-2.8
	c-1.3,0-2.3-0.9-2.3-2.2v-24c0-12.8-8.4-20.6-21.9-20.6c-9.1,0-17.7,4.2-21,12.2c-0.8,1.8,0.6,4.7,2.5,5.3l2.1,0.7
	c2.8,0.9,4.7,0,5.9-2.7c1.8-4.1,5.4-5.8,10.6-5.8c7.7,0,11.5,4.4,11.4,10.9c-2.3,3.2-8.9,3.3-15.8,3.3c-11.2,0-19.2,5.6-19.2,16.6
	c0,11.2,8.8,17.3,20.9,17.3c6.2,0,12.7-1.7,15.9-6.2c1.9,3.1,5.2,5,8.5,5H195.4z M-0.6,309.7c2,0,3.7-1.7,3.7-3.7v-3.6
	c0-1.4-1.2-2.5-2.5-2.5h-2.8c-1.3,0-2.3-0.9-2.3-2.2v-24c0-12.8-8.5-20.6-21.9-20.6c-9,0-17.7,4.2-21,12.2c-0.8,1.8,0.6,4.7,2.5,5.3
	l2.1,0.7c2.8,0.9,4.7,0,5.9-2.6c1.8-4.1,5.5-5.8,10.6-5.8c7.6,0,11.5,4.4,11.4,10.9c-2.3,3.2-9.1,3.3-16,3.3
	c-10.8,0-18.9,5.6-18.9,16.6c0,11.2,8.9,17.3,20.9,17.3c6.1,0,12.7-1.7,15.9-6.2c1.9,3.1,5.2,5,8.5,5H-0.6z M258.4,309.7
	c2,0,3.7-1.7,3.7-3.7v-3.6c0-1.4-1.2-2.5-2.5-2.5h-2.8c-1.3,0-2.3-0.9-2.3-2.2v-57.9c0-2.4-2-4.3-4.3-4.3h-1.9c-2.4,0-4.3,2-4.3,4.3
	v18.8c-3.6-3.1-8.2-5.5-14.6-5.5c-14.4,0-23.3,12.3-23.6,29c0.3,16.4,9.1,28.8,23.6,28.8c7.4,0,12.4-3.1,16.1-6.9
	c1.8,3.6,5.3,5.7,9,5.7H258.4z M156.9,293.5c0-4.4,3.1-7.1,8.1-7.1c6.1,0,13-0.1,16-2.7v10.1c-0.6,4.9-5.5,7.3-12.4,7.3
	C162.3,300.9,156.9,298.5,156.9,293.5 M-39.1,293.5c0-4.4,3.4-7.1,7.9-7.1c6.1,0,13.2-0.1,16.2-2.7v10.1c-0.7,4.9-5.6,7.3-12.4,7.3
	C-33.6,300.9-39.1,298.5-39.1,293.5 M216.5,282c0.2-10.8,5.2-18.8,14-18.8c6.2,0,10.9,4,13.4,7.8v21.9c-2.5,3.8-7.2,7.8-13.4,7.8
	C221.7,300.7,216.8,292.7,216.5,282 M97.8,292.9v-21.9c2.5-3.8,7.2-7.8,13.4-7.8c8.8,0,13.7,8,14,18.8c-0.2,10.7-5.2,18.7-14,18.7
	C105,300.7,100.2,296.7,97.8,292.9 M40.7,304.2c0-2.4-2-4.3-4.3-4.3h-5.5c-2,0-3.2-1.4-3.2-3.2v-32.2h23.1v33
	c0,7.1,5.7,12.3,12.4,12.3h7.7c2.4,0,4.3-2,4.3-4.3v-1.2c0-2.4-2-4.3-4.3-4.3h-6.3c-1.9,0-3.2-1.4-3.2-3.2v-32.2H71
	c2.4,0,4.3-2,4.3-4.3v-1.4c0-2.4-2-4.3-4.3-4.3h-9.6v-14.5c0-2.4-2-4.3-4.3-4.3h-2c-2.4,0-4.3,2-4.3,4.3v14.5H27.6v-14.5
	c0-2.4-2-4.3-4.3-4.3h-1.9c-2.4,0-4.3,2-4.3,4.3v14.5H9.3c-2.4,0-4.3,2-4.3,4.3v1.4c0,2.4,2,4.3,4.3,4.3H17v33
	c0,7.1,5.7,12.3,12.4,12.3h6.9c2.4,0,4.3-2,4.3-4.3V304.2z"/>
</svg>
